<?xml version="1.0" encoding="utf-8"?>
<svg version="1.1" id="Layer_1" xmlns="http://www.w3.org/2000/svg" xmlns:xlink="http://www.w3.org/1999/xlink" x="0px" y="0px"
	 width="1141.389px" height="951.157px" viewBox="0 0 1141.389 951.157" enable-background="new 0 0 1141.389 951.157"
	 xml:space="preserve">
<g>
	<g>
		<path fill="#F04848" d="M570.695,0C255.507,0,0,103.42,0,230.995v489.167c0,18.724,5.541,36.921,15.929,54.352
			c60.392,101.347,285.836,176.643,554.766,176.643s494.374-75.296,554.765-176.643c10.388-17.43,15.929-35.628,15.929-54.352
			V230.995C1141.389,103.42,885.882,0,570.695,0z"/>
		<path fill="#ee5a5a" d="M570.694,0C255.507,0,0,103.42,0,230.996c0,18.724,5.541,36.921,15.929,54.352
			c60.392,101.347,285.835,176.643,554.765,176.643s494.373-75.296,554.765-176.643c10.388-17.431,15.929-35.628,15.929-54.352
			C1141.389,103.42,885.882,0,570.694,0z"/>
		<polygon fill="#FFFFFF" points="786.523,280.605 613.995,261.895 660.224,331.73 687.899,320.525 869.707,394.115 
			940.656,365.397 758.851,291.807 		"/>
		<polygon fill="#FFFFFF" points="273.675,310.085 227.442,379.919 399.975,361.207 372.297,350.004 554.108,276.415 
			483.156,247.697 301.345,321.284 		"/>
		<polygon fill="#FFFFFF" points="738.861,100.976 911.394,82.266 865.16,152.101 837.485,140.899 655.678,214.486 584.728,185.77 
			766.536,112.181 		"/>
		<polygon fill="#FFFFFF" points="477.824,131.641 524.052,201.477 351.525,182.764 379.197,171.562 197.392,97.974 268.341,69.256 
			450.149,142.847 		"/>
	</g>
	<g>
		<path fill="#FFFFFF" d="M220.392,648.686c-5.799,0-11.376-3.206-14.15-8.742c-3.9-7.811-0.736-17.304,7.07-21.209l40.088-20.041
			l-40.088-20.041c-7.806-3.905-10.97-13.399-7.07-21.209c3.91-7.8,13.409-10.955,21.209-7.07l68.362,34.181
			c5.356,2.681,8.737,8.15,8.737,14.14s-3.38,11.459-8.737,14.14l-68.362,34.181C225.182,648.146,222.769,648.686,220.392,648.686z"
			/>
	</g>
	<g>
		<path fill="#FFFFFF" d="M920.998,648.686c-2.377,0-4.79-0.54-7.059-1.672l-68.362-34.181c-5.356-2.681-8.737-8.15-8.737-14.14
			s3.38-11.459,8.737-14.14l68.362-34.181c7.806-3.89,17.299-0.736,21.209,7.07c3.9,7.811,0.736,17.304-7.07,21.209l-40.088,20.041
			l40.088,20.041c7.806,3.905,10.97,13.399,7.07,21.209C932.374,645.481,926.792,648.686,920.998,648.686z"/>
	</g>
	<g>
		<path fill="#FFFFFF" d="M633.103,843.12c-2.887,0-5.758-1.178-7.836-3.489c-13.913-15.452-33.805-24.317-54.572-24.317
			c-20.767,0-40.659,8.865-54.572,24.317c-3.88,4.327-10.558,4.672-14.88,0.782c-4.327-3.895-4.677-10.558-0.782-14.88
			c17.901-19.887,43.504-31.294,70.235-31.294c26.73,0,52.334,11.407,70.235,31.294c3.895,4.322,3.545,10.985-0.782,14.88
			C638.135,842.225,635.614,843.12,633.103,843.12z"/>
	</g>
</g>
</svg>
