<?xml version="1.0" encoding="iso-8859-1"?>
<svg version="1.1" id="Capa_1" xmlns="http://www.w3.org/2000/svg" xmlns:xlink="http://www.w3.org/1999/xlink" x="0px" y="0px"
	 viewBox="0 0 430 430" style="enable-background:new 0 0 430 430;" xml:space="preserve">
<g>
	<path d="M143.099,341.797h143.78v-31.282h-143.78V341.797z M259.616,317.494c4.784,0,8.661,3.876,8.661,8.662
		c0,4.786-3.877,8.662-8.661,8.662c-4.786,0-8.662-3.876-8.662-8.662C250.954,321.37,254.83,317.494,259.616,317.494z
		 M234.207,317.494c4.786,0,8.662,3.876,8.662,8.662c0,4.786-3.876,8.662-8.662,8.662c-4.785,0-8.662-3.876-8.662-8.662
		C225.545,321.37,229.422,317.494,234.207,317.494z"  fill="#00BF1F" stroke="#00BF1F"/>
	<path d="M323.424,124.005c-4.114,0-8.213,0.235-12.277,0.703c-4.898-20.225-15.654-38.646-31.178-53.024
		c-19.752-18.295-45.464-28.37-72.4-28.37c-49.559,0-91.801,33.842-103.422,80.719C46.495,125.326,0,172.626,0,230.582
		c0,56.56,44.286,102.962,100,106.371v18.185c0,17.397,14.152,31.549,31.549,31.549h166.879c17.397,0,31.55-14.152,31.55-31.549
		v-18.184C385.702,333.557,430,287.149,430,230.582C430,171.815,382.19,124.005,323.424,124.005z M309.978,299.412v53.934
		c0,6.378-5.171,11.549-11.55,11.549H131.549c-6.377,0-11.549-5.171-11.549-11.549v-54.38c0-0.095,0.013-0.188,0.015-0.283
		c0.005-0.168,0.013-0.336,0.024-0.504c0.019-0.27,0.046-0.535,0.083-0.799c0.02-0.145,0.039-0.289,0.065-0.434
		c0.055-0.308,0.123-0.609,0.201-0.908c0.02-0.076,0.029-0.151,0.051-0.226l23.098-81.416c1.41-4.968,5.946-8.397,11.11-8.397
		h120.682c5.165,0,9.701,3.429,11.111,8.397l22.892,80.686c0.432,1.213,0.668,2.52,0.668,3.882
		C310,299.116,309.983,299.263,309.978,299.412z" fill="#008CFF" stroke="#008CFF"/>
</g>
<g>
</g>
<g>
</g>
<g>
</g>
<g>
</g>
<g>
</g>
<g>
</g>
<g>
</g>
<g>
</g>
<g>
</g>
<g>
</g>
<g>
</g>
<g>
</g>
<g>
</g>
<g>
</g>
<g>
</g>
</svg>
