<?xml version="1.0" encoding="utf-8"?>
<svg version="1.1" id="Layer_1" xmlns="http://www.w3.org/2000/svg" xmlns:xlink="http://www.w3.org/1999/xlink" x="0px" y="0px"
	 width="1141.389px" height="951.157px" viewBox="0 0 1141.389 951.157" enable-background="new 0 0 1141.389 951.157"
	 xml:space="preserve">
<g>
	<g>
		<path fill="#63738A" d="M570.695,0C255.507,0,0,103.42,0,230.995v489.167c0,18.724,5.541,36.921,15.929,54.352
			c60.392,101.347,285.836,176.643,554.766,176.643s494.374-75.296,554.765-176.643c10.388-17.43,15.929-35.628,15.929-54.352
			V230.995C1141.389,103.42,885.882,0,570.695,0z"/>
		<path fill="#808ea2" d="M570.694,0C255.507,0,0,103.42,0,230.996c0,18.724,5.541,36.921,15.929,54.352
			c60.392,101.347,285.835,176.643,554.765,176.643s494.373-75.296,554.765-176.643c10.388-17.431,15.929-35.628,15.929-54.352
			C1141.389,103.42,885.882,0,570.694,0z"/>
		<polygon fill="#FFFFFF" points="786.523,280.605 613.995,261.895 660.224,331.73 687.899,320.525 869.707,394.115 
			940.656,365.397 758.851,291.807 		"/>
		<polygon fill="#FFFFFF" points="273.675,310.085 227.442,379.919 399.975,361.207 372.297,350.004 554.108,276.415 
			483.156,247.697 301.345,321.284 		"/>
		<polygon fill="#FFFFFF" points="738.861,100.976 911.394,82.266 865.16,152.101 837.485,140.899 655.678,214.486 584.728,185.77 
			766.536,112.181 		"/>
		<polygon fill="#FFFFFF" points="477.824,131.641 524.052,201.477 351.525,182.764 379.197,171.562 197.392,97.974 268.341,69.256 
			450.149,142.847 		"/>
	</g>
	<path fill="#FFFFFF" d="M277.172,598.693L306.49,569.4c6.257-6.252,6.262-16.393,0.01-22.65c-6.252-6.257-16.391-6.261-22.65-0.01
		l-29.338,29.313l-29.338-29.313c-6.258-6.252-16.398-6.249-22.65,0.01c-6.252,6.258-6.247,16.398,0.01,22.65l29.319,29.293
		l-29.319,29.293c-6.257,6.252-6.262,16.393-0.01,22.65c3.128,3.13,7.229,4.696,11.33,4.696c4.096,0,8.194-1.562,11.32-4.686
		l29.338-29.313l29.338,29.313c3.127,3.125,7.223,4.686,11.32,4.686c4.101,0,8.203-1.565,11.33-4.696
		c6.252-6.258,6.247-16.398-0.01-22.65L277.172,598.693z"/>
	<path fill="#FFFFFF" d="M909.487,598.693l29.319-29.293c6.257-6.252,6.262-16.393,0.01-22.65c-6.252-6.257-16.391-6.261-22.65-0.01
		l-29.339,29.313l-29.338-29.313c-6.258-6.252-16.398-6.249-22.65,0.01c-6.252,6.258-6.247,16.398,0.01,22.65l29.319,29.293
		l-29.319,29.293c-6.257,6.252-6.262,16.393-0.01,22.65c3.128,3.13,7.229,4.696,11.33,4.696c4.096,0,8.194-1.562,11.32-4.686
		l29.338-29.313l29.339,29.313c3.127,3.125,7.223,4.686,11.32,4.686c4.101,0,8.203-1.565,11.33-4.696
		c6.252-6.258,6.247-16.398-0.01-22.65L909.487,598.693z"/>
	
		<line fill="none" stroke="#FFFFFF" stroke-width="25" stroke-linecap="round" stroke-miterlimit="10" x1="517.206" y1="833.572" x2="624.183" y2="833.572"/>
</g>
</svg>
